# xmcd
#
# Track frame offsets: 
#        150
#        15115
#        24116
#        39311
#        52025
#        67044
#        87851
#        100606
#        109917
#        123788
#
# Disc length: 1829 seconds
#
# Revision: 0
# Processed by: cddbd v1.5.2PL0 Copyright (c) Steve Scherf et al.
# Submitted via: ExactAudioCopy v0.99pb3
#
DISCID=6b07230a
DTITLE=The Delfonics - Best Of Delfonics
DYEAR=2007
DGENRE=Soul
TTITLE0=La-La Means I Love You
TTITLE1=Ready Or Not Here I Come (Can't Hide From Love)
TTITLE2=Didn't I (Blow Your Mind This Time)
TTITLE3=I'm Sorry
TTITLE4=Somebody Loves You
TTITLE5=Think It Over
TTITLE6=When You Get Right Down To It
TTITLE7=Loving Him
TTITLE8=Trying To Make A Fool Of Me
TTITLE9=Can You Remember
EXTD=
EXTT0=
EXTT1=
EXTT2=
EXTT3=
EXTT4=
EXTT5=
EXTT6=
EXTT7=
EXTT8=
EXTT9=
PLAYORDER=
